<svg width="210" height="248" viewBox="0 0 210 248" fill="none" xmlns="http://www.w3.org/2000/svg">
<path d="M155.228 24.4881C155.063 24.6126 154.947 24.7857 154.805 24.9318C128.893 -6.92178 94.5486 -4.43637 73.3661 11.1821C59.5458 21.372 52.0771 37.1368 50.6447 50.4902C37.2491 51.92 21.4385 59.3644 11.2178 73.143C-4.44798 94.2617 -6.94099 128.503 25.0105 154.338C24.864 154.48 24.6904 154.596 24.5656 154.76C15.0401 167.28 10.7689 196.347 30.3768 216.289C59.3177 245.724 89.0632 234.354 111.664 241.852C151.73 255.145 181.709 243.287 212.12 212.114L212.758 211.478C244.025 181.158 255.92 151.269 242.587 111.324C235.065 88.7917 246.47 59.1358 216.947 30.2821C196.944 10.7331 167.788 14.9932 155.23 24.4863L155.228 24.4881Z" fill="#FFCA62"/>
<path d="M104.871 182.508C104.961 167.734 90.422 155.699 72.397 155.626C54.3721 155.554 39.6868 167.471 39.5965 182.245C39.5062 197.019 54.0452 209.054 72.0702 209.127C90.0951 209.199 104.78 197.281 104.871 182.508Z" fill="white"/>
<path d="M86.2582 121.428C92.7726 108.145 84.9289 90.9997 68.7387 83.1327C52.5486 75.2657 34.143 79.6563 27.6286 92.9394C21.1142 106.222 28.9579 123.368 45.1481 131.235C61.3382 139.102 79.7438 134.711 86.2582 121.428Z" fill="white"/>
<path d="M209.785 71.8676C209.712 53.8969 197.64 39.4017 182.822 39.4916C168.003 39.5816 156.05 54.2226 156.122 72.1933C156.195 90.164 168.267 104.659 183.085 104.569C197.903 104.479 209.857 89.8382 209.785 71.8676Z" fill="white"/>
<path d="M131.621 45.0093C123.73 28.868 106.533 21.0478 93.2099 27.5425C79.8866 34.0373 75.4827 52.3874 83.3735 68.5288C91.2642 84.6702 108.462 92.4904 121.785 85.9956C135.108 79.5009 139.512 61.1507 131.621 45.0093Z" fill="white"/>
<path d="M194.169 116.689C181.67 110.846 173.533 115.719 156.162 111.314C145.406 108.587 124.438 92.9121 108.742 108.417C93.1904 124.062 108.912 144.97 111.648 155.694C116.066 173.013 111.179 181.125 117.039 193.586C120.258 200.431 126.281 203.364 131.82 204.734C141.386 207.104 155.25 200.604 163.095 185.702C166.959 178.362 171.985 172.927 172.694 172.176C173.448 171.468 178.9 166.457 186.261 162.607C201.208 154.785 207.726 140.965 205.35 131.426C203.974 125.902 201.034 119.898 194.169 116.689Z" fill="white"/>
</svg>
